/* XPM */
static char *_d92af4780a24381b255ece1c1807f1f2IAaWZ0Gy4wpj4iu[] = {
/* columns rows colors chars-per-pixel */
"40 40 41 1 ",
"  c None",
". c #995C07",
"X c #995C09",
"o c #AB700E",
"O c #AF7E12",
"+ c #B07610",
"@ c #B68816",
"# c #B68916",
"$ c #BD9419",
"% c #B1813D",
"& c #C19A1B",
"* c #D9A21D",
"= c #D9BE26",
"- c #E6B122",
"; c #DEC528",
": c #F0D12C",
"> c #F2D52D",
", c #F3DA2F",
"< c #F4DB2F",
"1 c #EFCF35",
"2 c #F1E331",
"3 c #F6E231",
"4 c #F5E733",
"5 c #F6EA34",
"6 c #F8E833",
"7 c #F9EB34",
"8 c #FAEF35",
"9 c #FBF236",
"0 c #FBF238",
"q c #FCF67C",
"w c #DFBD87",
"e c #F8F088",
"r c #FDF78A",
"t c #FDF892",
"y c #FDF99E",
"u c #FEFAB0",
"i c #FEFBBF",
"p c #FEFBC3",
"a c #FEFCCE",
"s c #FAF6E6",
"d c #FFFEF2",
/* pixels */
"                                        ",
"                                        ",
"                                        ",
"                                        ",
"                                        ",
"                                        ",
"                                        ",
"                                        ",
"                                        ",
"                                        ",
"                                        ",
"                                        ",
"                                        ",
"                                        ",
"                 &;;;;                  ",
"                @99999=                 ",
"                2999999*                ",
"               @9399uy:-+               ",
"              X99:0iddr--X              ",
"              X99:iddq9,-X              ",
"              X99wddt967-X              ",
"              X9a1dq9987-X              ",
"               %sp><::94o               ",
"                .e99995.                ",
"                 O$999O                 ",
"                   XXX                  ",
"                                        ",
"                                        ",
"                                        ",
"                                        ",
"                                        ",
"                                        ",
"                                        ",
"                                        ",
"                                        ",
"                                        ",
"                                        ",
"                                        ",
"                                        ",
"                                        "
};
