/* XPM */
static char *fd36808b3f3346298af1643ba2b586bfeVf4BPzOR0SC1We3[] = {
/* columns rows colors chars-per-pixel */
"40 40 207 2 ",
"   c None",
".  c #2F1A09",
"X  c #311C0D",
"o  c #321C05",
"O  c #2F1810",
"+  c #36230C",
"@  c #3A2413",
"#  c #3E2C1A",
"$  c #432B1D",
"%  c #472D16",
"&  c #4D321B",
"*  c #4B3318",
"=  c #5A3A1C",
"-  c #492F20",
";  c #4B3724",
":  c #573C26",
">  c #613F26",
",  c #5A432A",
"<  c #59463A",
"1  c #65492B",
"2  c #6B532E",
"3  c #674C36",
"4  c #6D5133",
"5  c #6B523C",
"6  c #72563C",
"7  c #7A5C3E",
"8  c #765938",
"9  c #7B6033",
"0  c #7E6139",
"q  c #594B40",
"w  c #7A4D43",
"e  c #6F574C",
"r  c #7D5245",
"t  c #7C5D41",
"y  c #7E564D",
"u  c #7D5D4B",
"i  c #775C46",
"p  c #7D5B51",
"a  c #7E6858",
"s  c #7E6949",
"d  c #796E65",
"f  c #835B3A",
"g  c #815937",
"h  c #83663E",
"j  c #815149",
"k  c #845D4C",
"l  c #8B5D4B",
"z  c #875A48",
"x  c #905C4F",
"c  c #895E56",
"v  c #845F54",
"b  c #935F55",
"n  c #846445",
"m  c #8D6E46",
"M  c #85644C",
"N  c #8B634C",
"B  c #84684C",
"V  c #8B6C4D",
"C  c #876743",
"Z  c #93664B",
"A  c #8E7049",
"S  c #9B7C4E",
"D  c #91734F",
"F  c #846552",
"G  c #8B6454",
"H  c #866A54",
"J  c #8C6B54",
"K  c #856559",
"L  c #8B665A",
"P  c #846A59",
"I  c #8C6C5B",
"U  c #936D55",
"Y  c #93665C",
"T  c #926E5B",
"R  c #9B6E5A",
"E  c #966855",
"W  c #8F7255",
"Q  c #8D725D",
"!  c #8D7A5A",
"~  c #937355",
"^  c #9A7754",
"/  c #967B54",
"(  c #9B7B54",
")  c #93735B",
"_  c #9A755C",
"`  c #95785B",
"'  c #9C7D5C",
"]  c #A17F5A",
"[  c #A0715F",
"{  c #8C6D62",
"}  c #936D63",
"|  c #916D6A",
" . c #9B6A60",
".. c #8F7264",
"X. c #89756C",
"o. c #957464",
"O. c #9A7562",
"+. c #977962",
"@. c #9C7C63",
"#. c #94746A",
"$. c #9A766B",
"%. c #947E6A",
"&. c #9D7C6C",
"*. c #9C7971",
"=. c #A27C63",
"-. c #A27E6D",
";. c #A27562",
":. c #AB7F74",
">. c #9E815B",
",. c #9B8051",
"<. c #A1825D",
"1. c #A68A5B",
"2. c #A6875B",
"3. c #9E8265",
"4. c #9E836D",
"5. c #9D8373",
"6. c #9D8C7A",
"7. c #958370",
"8. c #A28364",
"9. c #AA8E64",
"0. c #A3836B",
"q. c #AF866D",
"w. c #A78C6D",
"e. c #AA8D6C",
"r. c #A78963",
"t. c #B48D6E",
"y. c #B08467",
"u. c #AC9163",
"i. c #AB916C",
"p. c #B0926B",
"a. c #A48572",
"s. c #A68B74",
"d. c #A98C74",
"f. c #A68B7A",
"g. c #A98B79",
"h. c #AA877A",
"j. c #B38974",
"k. c #B88F76",
"l. c #AC9274",
"z. c #AC947B",
"x. c #AF997B",
"c. c #B1967D",
"v. c #B1997D",
"b. c #AC8E83",
"n. c #BB8F84",
"m. c #AB9B8C",
"M. c #A89586",
"N. c #B49D84",
"B. c #BC9C85",
"V. c #BE9D8D",
"C. c #BC9388",
"Z. c #AE9E91",
"A. c #BE9992",
"S. c #BBA38A",
"D. c #BAA686",
"F. c #BAA493",
"G. c #BEA599",
"H. c #BCAB9D",
"J. c #B6A897",
"K. c #C19489",
"L. c #C29885",
"P. c #C39E96",
"I. c #C6A68E",
"U. c #C5AF95",
"Y. c #CAA59B",
"T. c #C7AA99",
"R. c #C6B69C",
"E. c #C8ABA2",
"W. c #CBB3A5",
"Q. c #CDBBA3",
"!. c #CAB4AA",
"~. c #C7B5A6",
"^. c #D5BDA6",
"/. c #D2BBA8",
"(. c #D1BEB0",
"). c #CDC1A6",
"_. c #D6C4AD",
"`. c #D5C1A6",
"'. c #D4C2B1",
"]. c #D4C5B9",
"[. c #DAC6BB",
"{. c #DBCABB",
"}. c #D9C8B8",
"|. c #E0CFB4",
" X c #E5D0BE",
".X c #DCCDC2",
"XX c #DFD1C5",
"oX c #DED1C8",
"OX c #E4CFC2",
"+X c #E8CCC5",
"@X c #E4D3C4",
"#X c #EFD8C5",
"$X c #E5D5CA",
"%X c #E9D6CA",
"&X c #E4D9CE",
"*X c #EAD9CC",
"=X c #E7D6C2",
"-X c #F0DBCD",
";X c #E6DCD1",
":X c #EBDFD3",
">X c #F2DFD5",
",X c #ECE1D5",
"<X c #EDE4D9",
"1X c #F1E1D5",
"2X c #F2E6DC",
"3X c #FAE3DA",
"4X c #F3E6E0",
/* pixels */
"                                                                !.W.T.J.        ",
"      m.5.%.0.6.                                            Z.G.E.T.V.S.        ",
"      ..{ #.o.o...5.                                      m.f.F.E.Y.P.V.        ",
"    m.F F I o.$.$.L I 6.                                  3.s.F.Y.P.A.C.        ",
"    m.F F L } o.&.-.@.V J               F.m.H..X&X&X{.F.P ! s.V.V.n.n.K.        ",
"      I G L L I T @.@.U M n C J n s B Q 7.M.].:X1X1X2X,X%XD.D.B.t.q.k.L.        ",
"      &.L G N N N U =.;.Z g f C J ` z.^.%X:X,X,X:X<X2X<X>X=X|.^.t.y.j.I.        ",
"        -.G k k l N R ;.U Z _ _ ) d.^. X%X*X&X$X&X;X4X2X1X=X~., = f t.L.        ",
"        S.0.N z l E [ ;.=.=.R U @.d.H 5 e < q ].oX&X<X<X<X:XM.: & > q.L.        ",
"          B.j._ E x z G O.U G J @.J : ; - $ - < {.:X,X<X<X,X,X6., P Q.^.c.      ",
"            P.Y.:.b b R U N N M a./.|.#X#X-X*X>X1X,X;X@X+X{.[.{.-X3X3X$XE.e d   ",
"            K.I.j.Y Y R G k 3 : n l.`.|. XOX%X*X1X,X=Xz.a G } A.%X*X%XOX!.m.X.  ",
"              E N O.J N n 1 & : 7 8.z.z.N.F.J.J.H.~.!.W.E. .b K.h.$.$.$.&.&.5.%.",
"              6 1 4 4 2 1 % % 4 V w.a.0.) ) Q Q Q Q o.} L l j r r w y G L L T &.",
"              a , ; ; ; $ + 3 8 J 0.0.) J J H H F F p p y j w w r r k G G G I %.",
"                2 * # @ O X 4 8 J &.&.) ) ) Q I K K K K K c c c k M G M k G J ..",
"                h * @ @ X @ 2 7 J 0.&.) ) ) Q Q I H H K I L L L F F F u M G I   ",
"                  = @ X X , 1 4 ) @.) O.) ~ W Q I H H H H H H K P M u u v L P   ",
"                  s.$ + . + * 6 ) ) ) _ _ ) ~ Q I J M B B n M F t t t k G L     ",
"                    5 % o o , V ) ` / ' @.' _ ) ) J n 0 9 9 9 9 8 7 n F L       ",
"                    0.i , 6 B ) @.@.' =.' / _ ) ) T N n C h h n C F J J $.      ",
"                  U.g.$.o.O.@.@.@.3.3.' ' ( ( ^ U J N N N C n B n F J I @.      ",
"                  I.a.a.5.&.-.&.<.<.' ( ' ( ^ ~ U J G Y Y G J G J J J ~ @.      ",
"                I.N.d.0.0.4.4.-.&.@.( ( ^ ^ ~ ) I L { { | I I J m A W ) @.      ",
"              R.S.x.d.w.0.3.8.0.@.>.( S S ^ ^ ^ ~ I I { { { L L I J ) ) `       ",
"              U.v.g.d.g.s.a.0.0.0.8.<.' ' ' ^ ^ ~ T T ) T { { I J J ~ W @.s.    ",
"            Q.D.c.z.l.d.f.f.a.0.0.8.8.@.@.<.] ' _ O.) ) ) o.I I J V J ~ @.a.    ",
"          R.R.N.x.l.l.d.s.a.a.a.0.0.0.-.8.<.<.=.*.$.#.#.#.| { { G J J ) @.-.    ",
"        H.).U.N.v.z.d.w.w.0.w.a.a.0.0.a.0.8.] =.*.$.#.#.o.) Q ) V m A ) ` 4.    ",
"        _._.D.v.x.v.l.e.u.9.w.h.h.a.a.4.0.0.=.@.$.o.#.o.#.o.O.) J m D @.@.&.    ",
"      {. X'.D.v.x.c.p.i.u.9.w.h.h.h.a.a.0.0.&.' ` O.o.o.o.o.) ) ) ) O.@.&.&.    ",
"      %X*XQ.N.z.l.l.l.i.u.9.e.a.a.g.a.6.a.a.&.' / ` O.O.O.) ~ ~ ) O.O.+.@.@.5.  ",
"    %X*X@X~.N.z.l.l.i.i.u.9.9.w.d.g.a.f.a.a.&.@.^ ` &.$.@.` ) ) o.o.O.) ` ' a.  ",
"    *X&X.XE.M.l.z.l.w.i.i.e.i.d.d.s.a.a.a.0.-.@.` ` &.@.@.o.O.o.o.#.O.) ` ' a.  ",
"  .X%XXX}.H.z.l.l.i.i.i.i.p.i.d.d.s.s.w.0.8.8.@.' ' @.@.` O.o.$...| #.O.$.@.5.  ",
"  @X$X@X[.G.f.l.i.i.i.i.i.p.i.w.d.d.s.d.g.0.0.8.>.' ' ^ ^ O.o.) o...#.@.O.@.a.  ",
"  @X@XOX(.F.g.d.e.e.w.e.p.i.i.w.d.s.s.g.h.a.0.8.8.' ( S S / / +.#.o.O.o.o.o.    ",
"oXOX{.[.!.F.b.g.d.e.e.e.u.9.1.e.d.g.s.s.g.a.0.8.>.' ( ,.( ' ' &.*.$.O.o.o.O.    ",
"}.[.[.'.Q.z.l.g.s.d.e.e.e.1.1.8.a.a.0.3.0.8.8.8.8.<.' ' >.@.` ) o.{ Q { o.#.    ",
"/.(.'.(.U.M.d.i.i.w.w.d.w.r.2.r.8.8.=.@.=.@.@.@.@.@.@.@.@.o.o.o.I I P I I ..    "
};
