/* XPM */
static char *_836f9ff9a954be8be5068eabb5c957eERCFNfOJx9Fe4OXk[] = {
/* columns rows colors chars-per-pixel */
"40 40 216 2 ",
"   c None",
".  c #1E0701",
"X  c #1D0801",
"o  c #240702",
"O  c #230B03",
"+  c #2B0B04",
"@  c #250E08",
"#  c #2B0D09",
"$  c #280604",
"%  c #310F0C",
"&  c #310C04",
"*  c #2B1003",
"=  c #2D100C",
"-  c #32130D",
";  c #3B150E",
":  c #311104",
">  c #351412",
",  c #3A1513",
"<  c #3C1A12",
"1  c #37230E",
"2  c #392514",
"3  c #3C2718",
"4  c #41120C",
"5  c #421712",
"6  c #431A16",
"7  c #4B1B14",
"8  c #441919",
"9  c #481A18",
"0  c #531D1A",
"q  c #5B1E1D",
"w  c #541818",
"e  c #47281A",
"r  c #53201A",
"t  c #54271F",
"y  c #4A3418",
"u  c #543716",
"i  c #60251F",
"p  c #4E2920",
"a  c #5C2321",
"s  c #573827",
"d  c #5D3B30",
"f  c #453325",
"g  c #6A2B29",
"h  c #642626",
"j  c #69332D",
"k  c #75342A",
"l  c #79352A",
"z  c #752F31",
"x  c #623A32",
"c  c #6C3B36",
"v  c #773836",
"b  c #732926",
"n  c #5E4628",
"m  c #5C4932",
"M  c #63492E",
"N  c #63452C",
"B  c #684936",
"V  c #77473E",
"C  c #77563C",
"Z  c #6A523C",
"A  c #78623D",
"S  c #624D44",
"D  c #7B4A45",
"F  c #6D5145",
"G  c #7B5C45",
"H  c #7B5D4B",
"J  c #795447",
"K  c #7E634A",
"L  c #7A6143",
"P  c #7A6353",
"I  c #863D37",
"U  c #81443B",
"Y  c #82493A",
"T  c #804736",
"R  c #82623D",
"E  c #854845",
"W  c #835D45",
"Q  c #855C4B",
"!  c #8B5E4B",
"~  c #8A544B",
"^  c #91594D",
"/  c #865D54",
"(  c #8D5C52",
")  c #885351",
"_  c #84634D",
"`  c #8A624C",
"'  c #856549",
"]  c #856454",
"[  c #8C6453",
"{  c #866D53",
"}  c #8B6A56",
"|  c #86665A",
" . c #8C655B",
".. c #8C6C5C",
"X. c #876C59",
"o. c #926455",
"O. c #926A54",
"+. c #946E5C",
"@. c #996D5E",
"#. c #92645C",
"$. c #8D7253",
"%. c #8D735B",
"&. c #927554",
"*. c #94755C",
"=. c #9A745D",
"-. c #96795C",
";. c #9A7A5E",
":. c #967A54",
">. c #91684A",
",. c #8B6E61",
"<. c #886664",
"1. c #946E64",
"2. c #986C63",
"3. c #8E7566",
"4. c #957463",
"5. c #997563",
"6. c #937A63",
"7. c #9C7B64",
"8. c #94766B",
"9. c #9A766A",
"0. c #96796A",
"q. c #9C7C6B",
"w. c #976F70",
"e. c #9B7C71",
"r. c #A17D65",
"t. c #A17E6C",
"y. c #A47768",
"u. c #A07B71",
"i. c #9E8165",
"p. c #9E826B",
"a. c #9C8473",
"s. c #A28366",
"d. c #A2836B",
"f. c #A68A6C",
"g. c #A88C6D",
"h. c #A78E65",
"j. c #AB916D",
"k. c #A48472",
"l. c #A68A73",
"z. c #A98D73",
"x. c #A38C79",
"c. c #AB8C7B",
"v. c #A88477",
"b. c #B28E7E",
"n. c #AC9273",
"m. c #AE937B",
"M. c #AE997E",
"N. c #AA9779",
"B. c #B4957B",
"V. c #B19B7C",
"C. c #AC8D83",
"Z. c #BC8F8A",
"A. c #B98F80",
"S. c #AC9483",
"D. c #A89685",
"F. c #B29783",
"G. c #B49C84",
"H. c #BD938B",
"J. c #B29B8C",
"K. c #B8998A",
"L. c #BF9E93",
"P. c #B99791",
"I. c #B6A18D",
"U. c #BBA48B",
"Y. c #BAA495",
"T. c #BBA399",
"R. c #BEAA9A",
"E. c #BCA891",
"W. c #BEB196",
"Q. c #BCAEA0",
"!. c #C4998A",
"~. c #C39C96",
"^. c #C1A58F",
"/. c #C2A594",
"(. c #C1A59C",
"). c #C3AD9A",
"_. c #CBA99B",
"`. c #C8B799",
"'. c #CFB792",
"]. c #C7A7A4",
"[. c #C9B3A2",
"{. c #C6B5AB",
"}. c #CABBAD",
"|. c #C9B6A7",
" X c #D2B7AC",
".X c #D2BFAC",
"XX c #D0BCA1",
"oX c #CBBFB5",
"OX c #D0BEB4",
"+X c #D1C1A7",
"@X c #D3C3B3",
"#X c #D6C4BA",
"$X c #DCCDBD",
"%X c #D7C7B8",
"&X c #DDD0BF",
"*X c #E3CEBD",
"=X c #E4C8BC",
"-X c #E3D4BF",
";X c #DCCBC2",
":X c #D6CAC0",
">X c #DFD5CA",
",X c #DCD5C5",
"<X c #E6CDC1",
"1X c #E4D3C5",
"2X c #EBD4C5",
"3X c #E3D7CB",
"4X c #ECD6CB",
"5X c #EAD9CC",
"6X c #E6D9C9",
"7X c #EBDDD1",
"8X c #E8DFD8",
"9X c #F3DBD1",
"0X c #F6E1CF",
"qX c #EAE2D5",
"wX c #EDE3DD",
"eX c #F2E4DB",
/* pixels */
"                                                          {. X X{.              ",
"      k.q.a.M.[.                                        T.(.].(.L.Q.            ",
"    a.,.4.4.4.4.c.                                  }.x.x.(.].].L.T.            ",
"    0.] ..4.9.4.} *.                  oX}.$X,X3X%X).6.6.l./.].~.P.P.            ",
"    6._ [ 1.4.t.d.-.' f.        }.E.x.D.{.7XqXeXeX9X2X.X_.~.H.Z.Z.P.            ",
"    a.]  .....*.r.r.O.W R ' _ K %.m.@X7XqXqXqXwXeXeXeX2Xx.F V v.b.K.            ",
"      }  .] ` ` >.r.y.` C R &.-.U.*X*X;X:X>XqX8XwX3X4X2X2X2XY.J q.!.            ",
"      y.o.W _ _ ` +.r.O.O.*.4.C.J.S P S oXeXeX1X{.C.1./ / 1.<X0X0X9X|.          ",
"        t.` W ! O.=.;.;.5.+.4.t.B a.2X9X7X#XT.k.8. .) J J J  .D.$X9X4X[.        ",
"        K.7.O.! o.~ ! ;.O.} z.=X4X5X5X=XJ.3.F e - $ o o O O o < B q._. XS.      ",
"        Y.!.!.y.o.^ o.} _ _ U.*X$X@X].e.F e $ o $ o . . . . X o O s ] l.C.S.    ",
"          L._.H.2.#.=._ B F I.R.I.S.3.d # O O $ # + $ # # @ o O . + p J 6.l.R.  ",
"          T.H.A.y.#.O.C n { G.S.v.9.B * * O @ # # = = % % = = @ O $ + d G 6.a.{.",
"            e.N Q ] C s B 7.m.k.q. .: + # # # - > > > > > > > - = # + 6 B ] q.).",
"            F.M N N s y C s.d.4. .< $ # - > > > , > > > > > > > > - % ; N K 7.^.",
"              L y f e y _ p.9. .x & + - > , , > > > > > > > , , , < < < s G 6.^.",
"              -.y 3 2 Z { q.4.[ s + - - , , , , , , > , , , < < 6 7 7 e u L -.U.",
"                n 2 2 m H 5.@.[ x ; - < < < , ; , , > > , , < 8 8 0 r t M K -.  ",
"                A 2 1 s G 9.2.1./ t 7 0 7 7 4 ; , , , , < 6 6 9 0 r r j G { -.  ",
"                  y 1 y _ *.=.5.1.D x a a q w 7 5 5 < < 6 8 0 q q q g V _ {     ",
"                  $.y M } *.7.q.5.4.Q c j h a q q w w w 0 0 t i h z E ( ] %.    ",
"                  m.K K ..4.q.q.q.4.../ E v v g h a a a h h g b v E )  .X.      ",
"                '.B.u.*.5.u.u.t.e.q.9.1.o.) E U v k k k k k l I E / _ ..0.      ",
"                '.n.k.r.d.d.i.t.q.q.7.5.=.o.^ ^ ~ Y Y T U U Y Q ( K P X.        ",
"              XX/.m.f.s.s.s.s.d.q.7.;.5.4.4.@.@.o.o.` ! ! ! Q _ H _ X.e.        ",
"            ).[.J.n.l.d.s.s.s.s.7.7.-.-.-.*.+.O.O.O.[ ` W W G H ] ] *.          ",
"            |.).F.c.l.l.d.i.s.s.s.s.-.-.=.*.+.[ [ [ ` Q L ' _ | <...6.          ",
"          `.XXU.B.c.z.f.s.s.s.s.s.d.7.7.;.*.*...o.[ [ [ [ | ] } ..*.q.          ",
"          `.[.G.m.S.m.z.f.f.f.s.s.d.s.s.q.q.9.4.1.....} ....} { $.*.5.          ",
"        '.`.[.G.m.m.z.g.f.f.k.f.f.d.k.q.q.t.t.9.w.8.4...,.,...} %.*.5.D.        ",
"      W.`.+XU.G.M.m.z.h.h.f.f.f.f.d.k.k.q.r.;.=.4.4.4.4.,.,.....4.4.5.v.        ",
"      XX%X.XU.M.V.m.j.j.z.z.k.k.f.f.d.t.q.7.:.&.*.4.4.4.$.$.$.*.9.9.q.c.        ",
"    {.@X1X}.G.V.N.N.n.m.m.c.l.l.l.k.k.k.k.q.7.*.4.4.*.&.&.$.&.&.4.9.q.k.        ",
"    @X6X1X|.V.N.n.n.j.n.n.n.f.l.l.k.k.f.k.t.q.5.9.9.-.*.:.&.*.4.*.5.5.d.        ",
"  .X-X6X$X).V.n.n.n.j.j.n.z.z.g.g.g.g.s.s.q.q.4.9.q.;.-.&.*.*.4.-.-.;.s.        ",
"  %X3X3X;XR.m.m.m.m.n.n.n.n.z.n.g.g.f.s.s.s.q.9.9.q.5.;.&.&.4.8.4.*.;.p.        ",
"  &X3X>X:XT.N.n.n.n.n.n.n.n.n.z.z.z.l.k.s.i.d.7.9.q.6.-.&.4.1.3.0.5.5.d.        ",
"  1X1X1X#XY.z.n.n.n.n.n.n.n.z.z.l.c.l.l.k.d.d.d.q.q.5.7.:.4.8.4.4.4.9.d.        ",
"$X1X1X;XOXY.c.z.z.z.z.z.j.j.g.z.z.c.c.v.l.s.s.i.s.d.q.7.q.0.0.9.4.4.4.k.        ",
"<X1X#X#X}.J.C.l.z.z.z.g.g.g.z.z.z.l.l.x.l.f.p.i.i.p.p.q.0.0.8.8.4.,.8.p.        "
};
