/* XPM */
static char *result[] = {
/* columns rows colors chars-per-pixel */
"40 40 158 2 ",
"   c #030303",
".  c #1B1B1B",
"X  c #142A0C",
"o  c #24301C",
"O  c #242423",
"+  c #282825",
"@  c #2A3B21",
"#  c #5D3905",
"$  c #5F3B08",
"%  c #633F0D",
"&  c #5F3125",
"*  c #35561D",
"=  c #36581F",
"-  c #2C4B24",
";  c #374F26",
":  c #2C5022",
">  c #375920",
",  c #3A5E22",
"<  c #375525",
"1  c #3D602D",
"2  c #3A6629",
"3  c #3F6332",
"4  c #6C4A19",
"5  c #575C2F",
"6  c #5B5A31",
"7  c #7A4A2E",
"8  c #62532B",
"9  c #745734",
"0  c #426A2B",
"q  c #4B742F",
"w  c #47722C",
"e  c #456A32",
"r  c #4B6E33",
"t  c #4F6F3F",
"y  c #426630",
"u  c #556D35",
"i  c #4B7435",
"p  c #4D7936",
"a  c #4D7439",
"s  c #4D7A39",
"d  c #467134",
"f  c #52773E",
"g  c #527E3A",
"h  c #5D7B39",
"j  c #547436",
"k  c #60722F",
"l  c #627C3A",
"z  c #204A7D",
"x  c #376971",
"c  c #3E7477",
"v  c gray30",
"b  c #525151",
"n  c #526049",
"m  c #4D7741",
"M  c #537442",
"N  c #427056",
"B  c #427776",
"V  c #797676",
"C  c #A7170F",
"Z  c #AC1B13",
"A  c #B01E16",
"S  c #B32018",
"D  c #B8241C",
"F  c #C62F27",
"G  c #C73129",
"H  c #C8352D",
"J  c #C93B33",
"K  c #8B4B2F",
"L  c #83472E",
"P  c #864D31",
"I  c #8C4C31",
"U  c #924D30",
"Y  c #9F4C37",
"T  c #8E5031",
"R  c #955233",
"E  c #9C5635",
"W  c #9E5C36",
"Q  c #9D5B39",
"!  c #A25A37",
"~  c #A95B36",
"^  c #A45A39",
"/  c #AC5C38",
"(  c #B45A3A",
")  c #B6653E",
"_  c #CB4038",
"`  c #CF4F48",
"'  c #D15750",
"]  c #D4625B",
"[  c #D9736D",
"{  c #DC7C77",
"}  c #518E18",
"|  c #4B822D",
" . c #4F8632",
".. c #528435",
"X. c #548937",
"o. c #55843B",
"O. c #5B833B",
"+. c #578C3C",
"@. c #5A8D3E",
"#. c #5C913F",
"$. c #62913A",
"%. c #558243",
"&. c #5B8D40",
"*. c #5A8645",
"=. c #5D9241",
"-. c #4D815E",
";. c #62894E",
":. c #678856",
">. c #77A15F",
",. c #708963",
"<. c #719361",
"1. c #8AA979",
"2. c #24569A",
"3. c #336B8C",
"4. c #326B91",
"5. c #194CAD",
"6. c #1D52A6",
"7. c #164CB9",
"8. c #2255A4",
"9. c #225EB6",
"0. c #2762AE",
"q. c #0C3AC1",
"w. c #0439D9",
"e. c #0F49CE",
"r. c #114AC8",
"t. c #1956CB",
"y. c #0D49D3",
"u. c #1044DB",
"i. c #1755D0",
"p. c #0542EC",
"a. c #0944E6",
"s. c #0545F6",
"d. c #0345FD",
"f. c #0849F1",
"g. c #888686",
"h. c #959291",
"j. c #9AB18F",
"k. c #A4AF9B",
"l. c #A4BA99",
"z. c #B9B6B5",
"x. c #E5A09C",
"c. c #ECBAB8",
"v. c #B5CCA8",
"b. c #BFCEB8",
"n. c #C1D0BA",
"m. c #F6DCDB",
"M. c #F7E1DF",
"N. c #EAE7E7",
"B. c #E8ECE5",
"V. c #E7E9E6",
"C. c #F8E4E3",
"Z. c #F9EAE9",
"A. c #EFF3EC",
"S. c #F5F4F4",
"D. c #FCF4F4",
"F. c #FEFEFE",
"G. c #F9FAF7",
"H. c None",
/* pixels */
"H.H.H.H.H.H.H.H.H.H.H.H.H.H.H.H.H.H.H.H.H.H.H.H.H.H.H.H.H.H.H.H.H.H.H.H.H.H.H.H.",
"H.H.H.H.H.H.H.H.H.H.H.H.H.H.H.H.H.H.H.H.H.H.H.H.H.H.H.H.H.H.H.H.H.H.H.H.H.H.H.H.",
"H.H.H.H.H.H.H.H.H.H.H.H.H.H.H.H.H.H.H.H.H.H.H.H.H.H.H.H.H.H.H.H.H.H.H.H.H.H.H.H.",
"H.H.H.H.H.H.H.H.H.H.H.H.H.H.H.H.H.H.H.H.H.H.H.H.H.H.H.H.H.H.H.H.H.H.H.H.H.H.H.H.",
"H.H.H.H.H.H.H.H.H.H.H.H.H.H.H.H.H.H.H.H.H.H.H.H.H.H.H.H.H.H.H.H.H.H.H.H.H.H.H.H.",
"H.H.H.H.H.H.H.H.H.H.H.H.H.H.H.H.H.H.H.H.H.H.Z D S S Z S S A A A A Z Z Z Z Z Z S ",
"H.H.H.H.H.H.H.H.H.H.H.H.H.H.H.H.H.H.H.H.H.H.Z F F F F F F F F F F F F F F F F F ",
"H.H.H.H.H.H.H.H.H.H.H.H.H.H.H.H.H.H.H.H.H.H.Z G F F F F F F F F F F F F F F F F ",
"H.H.H.H.H.H.H.H.H.H.H.H.H.H.H.H.H.H.H.H.H.H.Z F F D.m.F F D.J F F H F.F.F.F F F ",
"H.H.H.H.H.H.H.H.H.H.H.H.H.H.H.H.H.H.H.H.H.H.Z F F F.F.F F F.F F F F.H F { F.F F ",
"H.H.H.H.H.H.H.H.H.H.H.H.H.H.H.H.H.H.H.H.H.H.Z F F F.Z.{ F F.F F c.c.F F F m.H F ",
"H.H.H.H.H.H.H.H.H.H.H.H.H.H.H.H.H.H.H.H.H.H.C F F F.F F.F F.F F D.G F F F G M.F ",
"H.H.H.H.H.H.H.H.H.H.H.H.H.H.H.H.H.H.H.H.H.H.C F F F.G F.F F.F F F.F F F G G G.F ",
"H.H.H.H.H.H.H.H.H.H.H.H.H.H.H.H.H.H.H.H.H.H.Z F F F.F [ D.F.F F F.F F F F J C.F ",
"H.H.H.H.H.H.H.H.H.H.H.H.H.H.H.H.H.H.H.H.H.H.C F F F.F F F.F.F F C.] F F F m.x.F ",
"H.H.H.H.H.H.H.H.H.H.H.H.H.H.H.H.H.H.H.H.H.H.Z F G F.F F F.F.F F G F.] G ` F.F F ",
"H.H.H.H.H.H.H.H.H.H.H.H.H.H.H.H.H.} H.H.H.H.Z F F C.F F F F.F F F ' D.D.D._ F F ",
"H.H.H.H.H.H.o H.H.H.H.H.H.H...@.@.@.@.@.&.H.A F F F F F F F F F F F F F F F F F ",
"H.H.H.2 >.X.=.#.=.#.H.H.; &.&.=.@.g i d r 3 Z F F F F F F F F F F F F F F F F F ",
"H.0 #.#.1.m 0 i s d 0 g =.O.0 i g o.o.e 1 d C A Z C Z Z Z Z A S S A Z A A Z A A ",
"- #...@.w @.@.@.+.q j i d y i %.a e , a a a M n X H.H.H.H.H.H.H.4 # H.H.H.H.H.H.",
"@.@.F.@.@.@.o.a ..i t g i s 2 : y ;.B.F.F.F.F.F.F.V.H.H.H.H.H.H.4 # H.H.H.H.H.H.",
"+...| @.@.a o.*.G.F.F.F.F.F.G.a ;.G.F.F.F.F.G.v N.F.k.H.H.H.H.H.4 # H.H.H.H.H.H.",
"+.X.>.@.@.M F.F.F.F.F.z.  D.F.l.:.F.F.F.F.S.V O + F.F.H.H.H.H.H.4 # H.H.H.H.H.H.",
"@.@.@.a %.b.F.F.F.F.F.+ . g.S.l.1.F.F.F.F.G.V.  h.F.F.H.H.H.H.H.4 # H.H.H.H.H.H.",
"@.@.@.@.o.O.,.F.F.F.F.S.b D.F.*.&.a i <.n.A.F.F.F.N.@ H.H.H.H.H.4 # H.H.H.H.H.H.",
"@.@.@.@.@.@.g o.s v.B.G.F.j.p @.@.@.+.o.o.i g d a s H.H.H.H.H.H.4 # H.H.H.H.H.H.",
"@.@.@.@.@.@.@.@.+.@...j o.@.=.=.&.+.o.p u 5 6 8 9 I H.H.H.H.H.H.4 # * H.H.H.H.H.",
"@.@.@.@.@.@.@.@.o.o.o.q 5 8 P Y ^ E Q Q R I U ! ) / H.H.H.H.H.H.4 # @.H.H.H.H.H.",
"@.@.@.@.@.@.s 7 R R E ~ ~ ) / / R R L P E / / E I & H.H.H.H.H.q o.o.= H.H.H.H.H.",
"@.@.@.@.@.@...( W R U U K L I K R E / / / / / / / I H.H.H.H., +.@.@.@.= H.H.H.H.",
"@.@.@.@.@.@.@.l Q E E E ^ / / / / ~ ^ Q j O.h l 9 H.H.H.H.H.> @.@.@.@., H.H.H.H.",
"@.@.&.@.@.< &.@.@.O.h O.l l l l O.@.@.@.@.@.&.@.@.H.H.H.H.H.0 , @.@.@.= H.H.H.H.",
"@.@.@.@.@.@.s @.@.@.@.&.@.@.@.@.@.@.+.@.@.@.&.=.@.H.H.H.H.H.= @.@.@.@.* H.H.H.H.",
"@.&.@.@.@.@.@.@.@.&.@.@.@.&.&.&.@.@.&.@.@.@.N B 9.H.H.H.H.H.d.z 4 k @.H.H.H.H.H.",
"+.+.=.=.@.&.&.&.@.@.&.@.@.@.@.@.@.@.@.&.B t.f.d.d.H.H.H.H.H.d.a.4 % d.d.H.H.H.H.",
"&.$.@.$.$.@.@.$.$.#.*.%.N x 3.4.4.0.i.f.d.d.d.d.s.q.H.H.H.d.d.a.4 # d.d.H.H.H.H.",
"e.7.6.2.8.6.5.7.r.y.a.p.s.d.d.d.d.d.d.d.d.d.d.d.d.d.p.H.H.d.d.s.4 # d.H.H.H.H.H.",
"d.d.d.d.d.d.d.d.d.d.d.d.d.d.d.d.d.d.d.d.d.d.d.d.d.d.d.w.H.d.d.d.4 % s.H.H.H.H.H.",
"d.d.d.d.d.d.d.d.d.d.d.d.d.d.d.d.d.d.s.d.d.d.d.d.d.d.d.d.d.d.d.d.# u.d.H.H.H.H.H."
};
