/* XPM */
static char *result[] = {
/* columns rows colors chars-per-pixel */
"40 40 214 2 ",
"   c #1E0F11",
".  c #1D181E",
"X  c #2B0D0E",
"o  c #240709",
"O  c #310B0E",
"+  c #3C0A0B",
"@  c #2C100F",
"#  c #2B0D12",
"$  c #370B11",
"%  c #2E1719",
"&  c #321214",
"*  c #3C1414",
"=  c #331D1C",
"-  c #3D1719",
";  c #34221C",
":  c #38341E",
">  c #291520",
",  c #3F1E23",
"<  c #331F20",
"1  c #2B2323",
"2  c #332B28",
"3  c #37332C",
"4  c #363639",
"5  c #440F0F",
"6  c #580E0F",
"7  c #420E13",
"8  c #560E12",
"9  c #431217",
"0  c #421E1C",
"q  c #48191A",
"w  c #53151B",
"e  c #59191B",
"r  c #6A191A",
"t  c #721619",
"y  c #74191A",
"u  c #781A19",
"i  c #721E11",
"p  c #43281E",
"a  c #5A221F",
"s  c #532A18",
"d  c #453912",
"f  c #7B221B",
"g  c #74271B",
"h  c #6E2617",
"j  c #5E1A21",
"k  c #671C23",
"l  c #7B1C24",
"z  c #4A2528",
"x  c #5C252A",
"c  c #413524",
"v  c #48342C",
"b  c #56392B",
"n  c #443A35",
"m  c #493F3C",
"M  c #443635",
"N  c #583E3C",
"B  c #642929",
"V  c #632224",
"C  c #74252B",
"Z  c #752929",
"A  c #67382D",
"S  c #782D32",
"D  c #6B373C",
"F  c #783E31",
"G  c #4A4613",
"H  c #75441E",
"J  c #574F23",
"K  c #52423B",
"L  c #5F4C35",
"P  c #464139",
"I  c #774324",
"U  c #684036",
"Y  c #675B26",
"T  c #7F6A26",
"R  c #4E434B",
"E  c #5B4D43",
"W  c #5A4B48",
"Q  c #58544A",
"!  c #524D51",
"~  c #5C5B56",
"^  c #714441",
"/  c #64594D",
"(  c #6E5A4D",
")  c #655A59",
"_  c #685754",
"`  c #735847",
"'  c #6F614E",
"]  c #6C6558",
"[  c #7B6454",
"{  c #7E6954",
"}  c #71665A",
"|  c #756A5C",
" . c #796C5A",
".. c #776453",
"X. c #7D705E",
"o. c #705B60",
"O. c #716A66",
"+. c #766A67",
"@. c #7E756C",
"#. c #7E7473",
"$. c #7A7873",
"%. c #851F1D",
"&. c #87231E",
"*. c #8A2D1C",
"=. c #8C1F2C",
"-. c #821D20",
";. c #921F26",
":. c #882629",
">. c #9D2325",
",. c #96222A",
"<. c #932D2A",
"1. c #9B2829",
"2. c #933529",
"3. c #842731",
"4. c #893E3D",
"5. c #983733",
"6. c #A32625",
"7. c #A32925",
"8. c #AC2B2D",
"9. c #A6272B",
"0. c #B12B2C",
"q. c #B3262F",
"w. c #A4322C",
"e. c #AE312F",
"r. c #A32631",
"t. c #AD2C30",
"y. c #AA2D36",
"u. c #B42B33",
"i. c #BD2D37",
"p. c #A83437",
"a. c #A73938",
"s. c #BE3233",
"d. c #C3343D",
"f. c #914025",
"g. c #8F4237",
"h. c #89482C",
"j. c #AC412F",
"k. c #A9403A",
"l. c #B94E32",
"z. c #89722D",
"x. c #B7643E",
"c. c #CE3A46",
"v. c #C63644",
"b. c #8A594C",
"n. c #9F5A51",
"m. c #8F5249",
"M. c #AF5956",
"N. c #BB5E5F",
"B. c #B9454D",
"V. c #846B55",
"C. c #826F5A",
"Z. c #896453",
"A. c #84735C",
"S. c #87725A",
"D. c #90765F",
"F. c #926858",
"G. c #846B62",
"H. c #847363",
"J. c #897666",
"K. c #8C7A65",
"L. c #837B6C",
"P. c #8C7D6E",
"I. c #877669",
"U. c #917E6B",
"Y. c #8A7D73",
"T. c #847478",
"R. c #847A7D",
"E. c #897C7A",
"W. c #D6404B",
"Q. c #DB4957",
"!. c #D94655",
"~. c #E34755",
"^. c #E5505F",
"/. c #C75B60",
"(. c #EA596A",
"). c #E85767",
"_. c #90805C",
"`. c #8F896C",
"'. c #95856F",
"]. c #9B8969",
"[. c #828478",
"{. c #8C8477",
"}. c #958373",
"|. c #9B8A75",
" X c #978879",
".X c #9E9579",
"XX c #989177",
"oX c #A4966E",
"OX c #A08F74",
"+X c #A29174",
"@X c #A2927B",
"#X c #A69A79",
"$X c #928A85",
"%X c #9C8F83",
"&X c #988D8A",
"*X c #999185",
"=X c #9C918D",
"-X c #9A8E92",
";X c #9C9293",
":X c #A19992",
">X c #A59C9C",
",X c #AA9C97",
"<X c #ACA199",
"1X c #B7A79A",
"2X c #A89DA1",
"3X c #ABA1A4",
"4X c #B2AAA7",
"5X c #B2A5A9",
"6X c #BCADAE",
"7X c #BEB4B5",
"8X c #BFB6B9",
"9X c #BAB1AA",
"0X c #C4BCBA",
"qX c None",
/* pixels */
"qXqXqXqXqXqXqXqXqXqXqXqXqXqXqXqXqXqXqXqXqXqXqXqXqXqXqXqXqXqXqXqXqXqXqXqXqXqXqXqX",
"qXqXqXqXqXqXqXqXqXqXqXqXqXqXqXqXqXqXqXqXqXqXqXqXqXqXqXqXqXqXqXqXqXqXqXqXqXqXqXqX",
"qXqXqXqXqXqXqXqXqXqXqXqXqXqXqXqXqXqXqXqXqXqXqXqXqXqXqXqXqXqXqXqXqXqXqXqXqXqXqXqX",
"qXqXqXqXqXqXqXqXqXqXqXqXqXqXqXqXqXqXqXqXqXqXqXqXqXqXqXqXqXqXqXqXqXqXqXqXqXqXqXqX",
"qXqXqXqXqXqXqXqXqXqXqXqXqXqXqXqXqXqXqXqXqXqXqXqXqXqXqXqXqXqXqXqXqXqXqXqXqXqXqXqX",
"qXqXqXqXqXqXqXqXqXqXqXqXqXqXqXqXqXqXqXqXQ qXqXqXqXqXqXqXqXqXqXqXqXqXqXqXqXqXqXqX",
"qXqXqXqXqXqXqXqXqXqXqXqXqXqXqXqXqXqXqXqXG J qXqXqXqXqXqXqXqXqXqXqXqXqXqXqXqXqXqX",
"qXqXqXqXqXqXqXqXqXqXqXqXqXqXqXqXqXqXqXqXG : qXqXqXqXqXqXqXqXqXqXqXqXqXqXqXqXqXqX",
"qXqXqXqXqXqXqXqXqXqXqXqXqXqXqXqXqXqXqX: Y p qXqXqXqXqXqXqXqXqXqXqXqXqXqXqXqXqXqX",
"qXqXqXqXqXqXqXqXqXqXqXqXqXqXU g f f s d z.H g h 5.5.D qXqXqXqXqXqXqXqXqXqXqXqXqX",
"qXqXqXqXqXqXqXqXqXqXqXqXz r f f f f i d z.H F f f f >.a.qXqXqXqXqXqXqXqXqXqXqXqX",
"qXqXqXqXqXqXqXqXqXqXqX, r y %.:.<.%.:.H *.f.I 2.>.>.w.a.,.qXqXqXqXqXqXqXqXqXqXqX",
"qXqXqXqXqXqXqXqXqXqXqXr r u <.k.w.8.7.h.6.0.0.8.s.0.w.x.1.f qXqXqXqXqXqXqXqXqXqX",
"qXqXqXqXqXqXqXqXqXqX7 e t &.1.6.9.q.7.7.0.d.d.v.d.d.d.l.j.,.qXqXqXqXqXqXqXqXqXqX",
"qXqXqXqXqXqXqXqXqXqX7 6 t 2.9.8.a.a.r.u.d.c.~.^.~.~.W.s.e.>.k qXqXqXqXqXqXqXqXqX",
"qXqXqXqXqXqXqXqXqX> + 8 g g.m.F.D.D.F.b.n./.(.(.).~.c.u.8.1.l qXqXqXqXqXqXqXqXqX",
"qXqXqXqXqXqXqXqXqXqX+ a b.V.Z.C.D.U.{ { V.Z.N.(.).Q.v.q.6.,.y qXqXqXqXqXqXqXqXqX",
"qXqXqXqXqXqXqXqXqXo + ` { A.{ C.H.U.....C.C.C.M.Q.c.v.q.6.5.u qXqXqXqXqXqXqXqXqX",
"qXqXqXqXqXqXqXqXqXo * { S.K.P.K.|.|.P.H.J.J.C.V.B.v.y.r.,.<.y qXqXqXqXqXqXqXqXqX",
"qXqXqXqXqXqXqXqXqXo * `.'.`.|.@X,X1X%X}.Y.U.J.C.F.y.r.,.3.:.r qXqXqXqXqXqXqXqXqX",
"qXqXqXqXqXqXqXqXqXo 0 {.%X,X&X,X0X4X<X;X;X=XY.H.I.r.;.:...Y.v qXqXqXqXqXqXqXqXqX",
"qXqXqXqXqXqXqXqXO.= - c 1 $.>X5X0X0X2X2Xm n m L.H.=.;.4.A.XX*X] qXqXqXqXqXqXqXqX",
"qXqXqXqXqXqXqXqX[.W * v > R R.2X6X6X>X+.1 ) 2 %XG.=.3.m.@X#X.X|./ qXqXqXqXqXqXqX",
"qXqXqXqXqXqXqX$.[.3 * @.$X;XR.;X,X>X&XR.O.O.$X XZ.3.l m..X@X.X.X`.n qXqXqXqXqXqX",
"qXqXqXqXqXqXqX~ $.qX= _ *X:X$X;X;X-X$X5X0X5XY.V.D 3.C A z |.OX XP.3 qXqXqXqXqXqX",
"qXqXqXqXqXqXqXQ qXqXqXK L.*X&XE.T.T.5X6X7X{.( Z Z S B B p = U.Y.} 2 qXqXqXqXqXqX",
"qXqXqXqXqXqXqX1 qXqXqX% ) L.Y.) _ o.0X:X{.^ Z C B B k j 0 qXP +.Q qXqXqXqXqXqXqX",
"qXqXqXqXqXqXqXqXqXqXqXqXX & K E N _ o.G.D k a U L b j j qXqXqX% qXqXqXqXqXqXqXqX",
"qXqXqXqXqXqXqXqXqXqXqXqX< X X 0 z N x j k e b ].#XJ.z 9 qXqXqXqXqXqXqXqXqXqXqXqX",
"qXqXqXqXqXqXqXqXqXqXqXqX] ; O O 7 w w j w q _.oX#X|., qXqXqXqXqXqXqXqXqXqXqXqXqX",
"qXqXqXqXqXqXqXqXqXqXqXqX|  .v o O $ $ 9 9 p V.oXoXOXn qXqXqXqXqXqXqXqXqXqXqXqXqX",
"qXqXqXqXqXqXqXqXqXqXqXqX} X.( < # # $ $ * - ( |.OX@XY.qXqXqXqXqXqXqXqXqXqXqXqXqX",
"qXqXqXqXqXqXqXqXqXqXqXqX}  .| /   # # # @ & K '.+XOX}.qXqXqXqXqXqXqXqXqXqXqXqXqX",
"qXqXqXqXqXqXqXqXqXqXqXqX} |  ./ qXqXqXqXqXqXm P.+X+X}./ qXqXqXqXqXqXqXqXqXqXqXqX",
"qXqXqXqXqXqXqXqXqXqXqX! } | | E qXqXqXqXqXqX4 #.L.{.I.E qXqXqXqXqXqXqXqXqXqXqXqX",
"qXqXqXqXqXqXqXqXqXqXqXqXqXqXqXqXqXqXqXqXqXqXqXqXqXqXqXqXqXqXqXqXqXqXqXqXqXqXqXqX",
"qXqXqXqXqXqXqXqXqXqXqXqXqXqXqXqXqXqXqXqXqXqXqXqXqXqXqXqXqXqXqXqXqXqXqXqXqXqXqXqX",
"qXqXqXqXqXqXqXqXqXqXqXqXqXqXqXqXqXqXqXqXqXqXqXqXqXqXqXqXqXqXqXqXqXqXqXqXqXqXqXqX",
"qXqXqXqXqXqXqXqXqXqXqXqXqXqXqXqXqXqXqXqXqXqXqXqXqXqXqXqXqXqXqXqXqXqXqXqXqXqXqXqX",
"qXqXqXqXqXqXqXqXqXqXqXqXqXqXqXqXqXqXqXqXqXqXqXqXqXqXqXqXqXqXqXqXqXqXqXqXqXqXqXqX"
};
