/* XPM */
static char *result[] = {
/* columns rows colors chars-per-pixel */
"40 40 161 2 ",
"   c #080B0A",
".  c #0B1409",
"X  c #151A0E",
"o  c #181A16",
"O  c #241E19",
"+  c #14210C",
"@  c #1D230F",
"#  c #18340A",
"$  c #152010",
"%  c #17261B",
"&  c #26261E",
"*  c #061938",
"=  c #292621",
"-  c #272420",
";  c #332E2B",
":  c #2B3C23",
">  c #243D25",
",  c #32302E",
"<  c #393533",
"1  c #4B2E1A",
"2  c #643F22",
"3  c #723A22",
"4  c #30461E",
"5  c #31511F",
"6  c #2B4B24",
"7  c #294927",
"8  c #3F4E2C",
"9  c #325423",
"0  c #3C522E",
"q  c #3C5C2B",
"w  c #2E5333",
"e  c #3E6230",
"r  c #44451B",
"t  c #475B29",
"y  c #5A5529",
"u  c #7A4124",
"i  c #456829",
"p  c #506D2E",
"a  c #447028",
"s  c #446F31",
"d  c #4B6F37",
"f  c #457530",
"g  c #4C7433",
"h  c #4B7932",
"j  c #537D35",
"k  c #517F3B",
"l  c #323A59",
"z  c #30444A",
"x  c #3F4F58",
"c  c #434441",
"v  c #51574D",
"b  c #404F57",
"n  c #535350",
"m  c #585853",
"M  c #645D5B",
"N  c #65625C",
"B  c #476F6B",
"V  c #6D6F6C",
"C  c #73716E",
"Z  c #7B7975",
"A  c #7D7E79",
"S  c #CF1618",
"D  c #D4191E",
"F  c #E90E18",
"G  c #EB1A1D",
"H  c #CB1920",
"J  c #DD1E2A",
"K  c #E31C24",
"L  c #EC1A24",
"P  c #EC1C28",
"I  c #EB1622",
"U  c #C4292A",
"Y  c #C52F34",
"T  c #DE2E32",
"R  c #C13538",
"E  c #DF3538",
"W  c #D03238",
"Q  c #E2232A",
"!  c #EB2026",
"~  c #ED2631",
"^  c #F02D3A",
"/  c #EC393B",
"(  c #C93E43",
")  c #F43B43",
"_  c #847F7E",
"`  c #BD6265",
"'  c #BE6F75",
"]  c #BC7A7E",
"[  c #C75655",
"{  c #F14246",
"}  c #F3404A",
"|  c #EB5C5B",
" . c #EC5D68",
".. c #EB656B",
"X. c #ED7877",
"o. c #EE7D7D",
"O. c #558637",
"+. c #53863A",
"@. c #568A39",
"#. c #568B36",
"$. c #578941",
"%. c #5B8B41",
"&. c #5E916B",
"*. c #60926D",
"=. c #08229A",
"-. c #083BE6",
";. c #59849F",
":. c #5F86A3",
">. c #6186A4",
",. c #648CAC",
"<. c #618DB2",
"1. c #6C9BBB",
"2. c #6B9CC3",
"3. c #898786",
"4. c #8C8B89",
"5. c #878D85",
"6. c #899085",
"7. c #91918E",
"8. c #9A9897",
"9. c #AB898B",
"0. c #B48D8A",
"q. c #B88384",
"w. c #AE948F",
"e. c #A19F9F",
"r. c #AA9396",
"t. c #8C9DAD",
"y. c #919FAF",
"u. c #A19FA0",
"i. c #AD9FA0",
"p. c #8EA1AF",
"a. c #91A0AF",
"s. c #8EA1B1",
"d. c #93A3B2",
"f. c #A5A5A2",
"g. c #ABAAA7",
"h. c #ADADAC",
"j. c #AAAAA9",
"k. c #B2ADAC",
"l. c #ABB0AD",
"z. c #B4B1AF",
"x. c #AEAFB1",
"c. c #AEB2B1",
"v. c #B1B3B2",
"b. c #B6B9B7",
"n. c #F99097",
"m. c #F29D9B",
"M. c #F69EA0",
"N. c #C1BFBD",
"B. c #F6AAAB",
"V. c #F3B0AF",
"C. c #F5ABB1",
"Z. c #F4BCB6",
"A. c #F6C6C6",
"S. c #FBD5DB",
"D. c #FADADC",
"F. c #FBD1D5",
"G. c #F9DFE3",
"H. c #FEEDEF",
"J. c #FEEEF6",
"K. c #F9F4F4",
"L. c None",
/* pixels */
"L.L.L.L.L.L.L.L.L.L.L.L.L.L.L.L.L.L.L.L.L.L.L.L.L.L.L.L.L.L.L.L.L.L.L.L.L.L.L.L.",
"L.L.L.L.L.L.L.L.L.L.L.L.L.L.L.L.L.L.L.L.L.L.L.L.L.L.L.L.L.L.L.L.L.L.L.L.L.L.L.L.",
"L.L.L.L.L.L.L.L.L.L.L.L.L.L.L.L.L.L.L.L.L.L.L.L.L.L.L.L.L.L.L.L.L.L.L.L.L.L.L.L.",
"L.L.L.L.L.L.L.L.L.L.L.L.L.L.L.L.L.L.L.L.L.L.L.L.L.L.L.L.L.L.L.L.L.L.L.L.L.L.L.L.",
"L.L.L.L.L.L.L.L.L.L.L.L.L.L.L.L.L.L.L.L.L.L.L.L.L.L.L.L.L.L.L.L.L.L.L.L.L.L.L.L.",
"L.L.L.L.L.L.L.L.L.L.L.L.L.L.L.L.L.L.L.L.L.L.L.L.L.L.L.L.L.L.L.L.L.L.L.L.L.L.L.L.",
"L.L.L.L.L.L.L.L.L.L.L.L.L.L.L.L.L.L.L.L.L.L.L.L.L.L.L.L.L.L.L.L.L.L.L.L.L.L.L.L.",
"L.L.L.L.L.L.L.L.2.,.>.>.>.>.>.>.>.>.>.>.>.>.>.>.>.>.>.:.:.:.<.2.L.L.L.L.L.L.L.L.",
"L.L.L.L.L.L.L.L.1.b O O O O O O O O O O O ; ; < M M C Z Z 8.t.1.L.L.L.L.L.L.L.L.",
"L.L.L.L.L.L.L.L.1.b O O O & N N A 3.4.f.f.g.g.g.h.h.h.h.g.h.s.2.L.L.L.L.L.L.L.L.",
"L.L.L.L.L.L.L.L.1.b O O O = g.h.h.x.x.k.h.j.j.h.h.h.h.j.h.h.s.2.L.L.L.L.L.L.L.L.",
"L.L.L.L.L.L.L.L.1.b O O O - h.h.j.x.c.v.k.k.g.i.r.r.9.g.h.h.s.2.L.L.L.L.L.L.L.L.",
"L.L.L.L.L.L.L.L.1.b O O O = h.h.k.Y H D J K ^ ) { { P 0.h.h.s.2.L.L.L.L.L.L.L.L.",
"L.L.L.L.L.L.L.L.1.x O O O = h.h.b.K Z.D.o. .m.D.Z.V.~ 0.j.h.s.2.L.L.L.L.L.L.L.L.",
"L.L.L.L.L.L.L.L.1.x O O O = h.k.c.Q B.P ) J.K S.G / P q.h.x.s.2.L.L.L.L.L.L.L.L.",
"L.L.L.L.L.L.L.L.1.b O O O = h.v.l.Q C.J.F H.F S.L | L ] h.c.s.2.L.L.L.L.L.L.L.L.",
"L.L.L.L.L.L.L.L.1.b O O O = h.h.l.T B.Q ^ H...S.P X.L ' h.h.s.2.L.L.L.L.L.L.L.L.",
"L.L.L.L.L.L.L.L.1.b O O O = h.h.j.E m.A.m.| A.F.K n.P ` h.x.s.2.L.L.L.L.L.L.L.L.",
"L.L.L.L.L.L.L.L.1.b O O O = h.h.h.W Q J H D H U Y ( [ w.h.h.s.2.L.L.L.L.L.L.L.L.",
"L.L.L.L.L.L.L.L.1.b O O O = h.h.h.l.x.v.c.x.x.x.h.h.h.j.x.h.p.2.L.L.L.L.L.L.L.L.",
"L.L.L.L.L.L.L.L.1.b O O O & j.h.h.h.g.k.j.j.k.j.k.h.h.h.h.h.s.2.L.L.L.L.L.L.L.L.",
"L.L.L.L.L.L.L.L.1.b & O & - h.h.h.h.k.k.k.k.g.k.j.h.h.h.h.h.s.2.L.L.L.L.L.L.L.L.",
"L.L.L.L.L.L.L.L.1.b O O O = h.h.h.k.k.k.k.k.k.g.h.k.k.h.x.h.s.2.L.L.L.L.L.L.L.L.",
"L.L.L.L.L.L.L.L.1.x O O O - g.8.3.3.y.3.4.k.k.k.j.k.j.h.h.j.s.2.L.L.L.L.L.L.L.L.",
"L.L.L.L.L.L.L.L.1.x   o % X   + p q   d t v k.k.k.g.h.g.l.k.a.2.L.L.L.L.L.L.L.L.",
"L.L.L.L.L.L.L.L.1.z i 6 e @.9 # O.9 6 o X ; k.k.k.h.h.h.l.h.a.2.L.L.L.L.L.L.L.L.",
"L.L.L.L.L.L.L.L.1.*.@.@.g 6   v & 6.c n V n b.z.k.h.h.h.l.k.a.2.L.L.L.L.L.L.L.L.",
"L.L.L.L.L.L.L.L.1.*.@.j 5.A < ; N.K.n o o t z.h.h.h.h.h.h.h.d.2.L.L.L.L.L.L.L.L.",
"L.L.L.L.L.L.L.L.1.&.@.s 6.V o : g 0 8 0 @ 8.z.h.h.h.h.h.h.k.d.2.L.L.L.L.L.L.L.L.",
"L.L.L.L.L.L.L.L.1.&.@.O.j q y r 1 3 3 u 3 N z.k.h.h.h.h.h.l.d.2.L.L.L.L.L.L.L.L.",
"L.L.L.L.L.L.L.L.1.&.@.f p 3 3 2 y i i t 1 _ z.l.l.g.h.l.h.h.p.2.L.L.L.L.L.L.L.L.",
"L.L.L.L.L.L.L.L.1.&.#.O.s f a %.%.@.h 6 m h.g.l.h.h.h.h.l.h.t.2.L.L.L.L.L.L.L.L.",
"L.L.L.L.L.L.L.L.1.B w 7 6 7 > % * * =.-.l j.h.l.l.h.h.h.l.h.y.2.L.L.L.L.L.L.L.L.",
"L.L.L.L.L.L.L.L.L.L.L.L.L.L.L.L.L.L.L.L.L.L.L.L.L.L.L.L.L.L.L.L.L.L.L.L.L.L.L.L.",
"L.L.L.L.L.L.L.L.L.L.L.L.L.L.L.L.L.L.L.L.L.L.L.L.L.L.L.L.L.L.L.L.L.L.L.L.L.L.L.L.",
"L.L.L.L.L.L.L.L.L.L.L.L.L.L.L.L.L.L.L.L.L.L.L.L.L.L.L.L.L.L.L.L.L.L.L.L.L.L.L.L.",
"L.L.L.L.L.L.L.L.L.L.L.L.L.L.L.L.L.L.L.L.L.L.L.L.L.L.L.L.L.L.L.L.L.L.L.L.L.L.L.L.",
"L.L.L.L.L.L.L.L.L.L.L.L.L.L.L.L.L.L.L.L.L.L.L.L.L.L.L.L.L.L.L.L.L.L.L.L.L.L.L.L.",
"L.L.L.L.L.L.L.L.L.L.L.L.L.L.L.L.L.L.L.L.L.L.L.L.L.L.L.L.L.L.L.L.L.L.L.L.L.L.L.L.",
"L.L.L.L.L.L.L.L.L.L.L.L.L.L.L.L.L.L.L.L.L.L.L.L.L.L.L.L.L.L.L.L.L.L.L.L.L.L.L.L."
};
