/* XPM */
static char *result[] = {
/* columns rows colors chars-per-pixel */
"40 40 195 2 ",
"   c #2C221B",
".  c #2D2620",
"X  c #322F2A",
"o  c #3B3230",
"O  c #453E3B",
"+  c #5E4D3C",
"@  c #474638",
"#  c #625D50",
"$  c #7F6244",
"%  c #746355",
"&  c #786556",
"*  c #6D6562",
"=  c #6F6D66",
"-  c #78796C",
";  c #8C0A0E",
":  c #86090D",
">  c #9B090A",
",  c #930E13",
"<  c #851112",
"1  c #8C1618",
"2  c #9E1C1E",
"3  c #9D1718",
"4  c #A9060C",
"5  c #B70609",
"6  c #AA0A10",
"7  c #A21E1E",
"8  c #AB1B1C",
"9  c #B4151B",
"0  c #B31C1C",
"q  c #B91819",
"w  c #933B18",
"e  c #B8241E",
"r  c #9A1F22",
"t  c #AD1E22",
"y  c #B81E21",
"u  c #952A2B",
"i  c #9C2526",
"p  c #9C302C",
"a  c #8F3631",
"s  c #9E3A36",
"d  c #A32325",
"f  c #AC2524",
"g  c #AC2826",
"h  c #A42729",
"j  c #AD2628",
"k  c #A42B2C",
"l  c #A82C29",
"z  c #B52224",
"x  c #BB2324",
"c  c #B32A2B",
"v  c #BB2D2D",
"b  c #B62629",
"n  c #AC312F",
"m  c #BE312D",
"M  c #AC2E30",
"N  c #A53534",
"B  c #A53837",
"V  c #B63333",
"C  c #B93D3A",
"Z  c #C5030D",
"A  c #CD030E",
"S  c #DF0516",
"D  c #D60211",
"F  c #C11A1F",
"G  c #D0131E",
"H  c #E2101F",
"J  c #C21E22",
"K  c #CD1E27",
"L  c #D81924",
"P  c #EF1F2D",
"I  c #F31122",
"U  c #C42529",
"Y  c #CD272C",
"T  c #C62728",
"R  c #D6242B",
"E  c #DC282F",
"W  c #D32C32",
"Q  c #C53133",
"!  c #D63A3D",
"~  c #E3212B",
"^  c #ED2530",
"/  c #E32A31",
"(  c #F42431",
")  c #F22A36",
"_  c #F92C34",
"`  c #E2343B",
"'  c #EB3B3F",
"]  c #F2363D",
"[  c #926B14",
"{  c #94711B",
"}  c #904B3E",
"|  c #A7463F",
" . c #CC403B",
".. c #EC3E45",
"X. c #E53C43",
"o. c #FC3C45",
"O. c #F73A44",
"+. c #844643",
"@. c #9B4641",
"#. c #9F5B4A",
"$. c #945C55",
"%. c #A34443",
"&. c #A44F4D",
"*. c #BC4140",
"=. c #A4554E",
"-. c #846B4E",
";. c #8A6A48",
":. c #84744B",
">. c #8A6D53",
",. c #8C6D5E",
"<. c #9B665B",
"1. c #8C7255",
"2. c #8D735A",
"3. c #91755B",
"4. c #937759",
"5. c #976445",
"6. c #BB6158",
"7. c #846D6E",
"8. c #8E7A62",
"9. c #877468",
"0. c #967C60",
"q. c #947B66",
"w. c #877C7B",
"e. c #AC6961",
"r. c #B87976",
"t. c #CD4947",
"y. c #D54746",
"u. c #DC504D",
"i. c #CC5B55",
"p. c #D55852",
"a. c #FB4147",
"s. c #F1494E",
"d. c #F14043",
"f. c #FA4951",
"g. c #EB5557",
"h. c #FF5254",
"j. c #FC5659",
"k. c #F45B5C",
"l. c #FC595A",
"z. c #F35457",
"x. c #D2625C",
"c. c #C46363",
"v. c #D36C66",
"b. c #C6796B",
"n. c #D6756F",
"m. c #E56F6A",
"M. c #FB6562",
"N. c #FD6B6A",
"B. c #F46D6A",
"V. c #EF736B",
"C. c #FD7272",
"Z. c #F57370",
"A. c #BD9239",
"S. c #8E806D",
"D. c #9A8065",
"F. c #99846B",
"G. c #8E8975",
"H. c #968D7C",
"J. c #9C8B7A",
"K. c #9B917F",
"L. c #AB8E69",
"P. c #A18A6C",
"I. c #B8817D",
"U. c #B39675",
"Y. c #B19A79",
"T. c #D3897F",
"R. c #F0867E",
"E. c #958B83",
"W. c #988D8C",
"Q. c #928D89",
"!. c #9D9589",
"~. c #A19383",
"^. c #A3908A",
"/. c #BD918B",
"(. c #A29595",
"). c #A49C92",
"_. c #A49A9C",
"`. c #B1A390",
"'. c #ADA8A4",
"]. c #B4ABA1",
"[. c #B9ACA7",
"{. c #B6ABAA",
"}. c #B0A5A0",
"|. c #B8B1AD",
" X c #C98882",
".X c #D48D8A",
"XX c #DA9F97",
"oX c #E98880",
"OX c #FE8687",
"+X c #E8908F",
"@X c #C7B6A1",
"#X c #DDBAA6",
"$X c #C3BAB4",
"%X c #C5C0BC",
"&X c None",
/* pixels */
"&X&X&X&X&X&X&X&X&X&X&X&X&X&X&X&X&X&X&X&X&X&X&X&X&X&X&X&X&X&X&X&X&X&X&X&X&X&X&X&X",
"&X&X&X&X&X&X&X&X&X&X&X&X&X&X&X&X&X&X&X&X&X&X&X&X&X&X&X&X&X&X&X&X&X&X&X&X&X&X&X&X",
"&X&X&X&X&X&X&X&X&X&X&X&X&X&X&X&X&X&X&X&X&X&X&X&X&X&X&X&X&X&X&X&X&X&X&X&X&X&X&X&X",
"&X&X&X&X&X&X&X&X&X&X&X&X&X&X&X&X&X&X&X&X&X&X&X&X&X&X&X&X&X&X&X&X&X&X&X&X&X&X&X&X",
"&X&X&X&X&X&X&X&X&X&X&X&X&X&X&X&X&X&X&X&X&X&X&X&X&X&X&X&X&X&X&X&X&X&X&X&X&X&X&X&X",
"&X&X&X&X&X&X&X&X&X&X&X&X&X&X&X&X&X&X&X&X&X&X&X&X&X&X&X&X&X&X&X&X&X&X&X&X&X&X&X&X",
"&X&X&X&X&X&X&X&X&X&X&X&X&X&X&X&X&X&X&X&X&X&X&X&X&X&X&X&X&X&X&X&X&X&X&X&X&X&X&X&X",
"&X&X&X&X&X&X&X&X&X&X&X&X&X&X&X&X&X&X&X&X&X&X&X&X&X&X&X&X&X&X&X&X&X&X&X&X&X&X&X&X",
"&X&X&X&X&X&X&X&X&X&X&X&X&X&X&X&X&X&X&X&X&X&X&X&X&X&X&X&X&X&X&X&X&X&X&X&X&X&X&X&X",
"&X&X&X&X&X&X&X&X&X&X&X&X&X&X&X&X&X&X&X&X&X&X&X&X&X&X&X&X&X&X&X&X&X&X&X&X&X&X&X&X",
"&X&X&X&X&X&X&X&X&X&X&X&X&X&X&X&X&X&X&XA.&X&X&X&X&X&X&X&X&X&X&X&X&X&X&X&X&X&X&X&X",
"&X&X&X&X&X&X&X&X&X&X&X&X&X&X&X&X&X&X&X[ c.i.r.&X&X&X&X&X&X&X&X&X&X&X&X&X&X&X&X&X",
"&X&X&X&X&X&X&X&X&X&X&X&X&X&X&X&Xx.x 6 { G 8 t.n.v.6.r.&X&X&X&X&X&X&X&X&X&X&X&X&X",
"&X&X&X&X&X&X&X&X&X&X&X&X&X.Xm.i. Xb.b.w v.Q V h k N i %.&X&X&X&X&X&X&X&X&X&X&X&X",
"&X&X&X&X&X&X&X&X&X&X&X&Xk.) S S D H A Z 5 5 4 > > ; : i %.&X&X&X&X&X&X&X&X&X&X&X",
"&X&X&X&X&X&X&X&X&X&X&X` I ( O.^ ] ^ A e q Z 4 6 3 7 , : < e.&X&X&X&X&X&X&X&X&X&X",
"&X&X&X&X&X&X&X&X&X&X+X_ h.N.k.M.B.1.D.P.1.;.;.9 8 2 d i < u &X&X&X&X&X&X&X&X&X&X",
"&X&X&X&X&X&X&X&X&X&X..l.k.N.OXoX-.-.4.F.-.;.>.1.l d i k B 1 &X&X&X&X&X&X&X&X&X&X",
"&X&X&X&X&X&X&X&X&X&X) a.l.C.OX:.0.2.4.P.1.2.,.>.1.7 d k p p /.&X&X&X&X&X&X&X&X&X",
"&X&X&X&X&X&X&X&X&X&Xf.O.j.l.Z.S.J.J.J.`.~.S.q.8.-.#.d d k p r.&X&X&X&X&X&X&X&X&X",
"&X&X&X&X&X&X&X&X&X&Xj.o.a.d.z.G.|.^.|.$X].).'.H.8.5.d d h |  X&X&X&X&X&X&X&X&X&X",
"&X&X&X&X&X&X&X&X&X&Xl.o.( ^ N.  o _.|.$X'.Q.. . ^.n 8 l j %./.&X&X&X&X&X&X&X&X&X",
"&X&X&X&X&X&X&X&X&X&XV.M.j.( E - w.* _.{.}.w.O * E.7 t.V h =.&X&X&X&X&X&X&X&X&X&X",
"&X&X&X&X&X&X&X&X&X&XoXs./ ~ ~ K ).W.(.(.Q.{.$XE.9 7 j C M &.&X&X&X&X&X&X&X&X&X&X",
"&X&X&X&X&X&X&X&X&X!.#XN.d...s.L 3.E.9.7.[.}.^.9 0 g d g n e.@X&X&X&X&X&X&X&X&X&X",
"&X&X&X&X&X&X&X&X@ K.&Xm.z.s.E R K e b j 0 q 9 9 0 g z c N Y.U.D.&X&X&X&X&X&X&X&X",
"&X&X&X&X&X&X&X&XX &X&X&Xk.X.R R Y T U y x J y 8 e b V j $.8.Y.D.= &X&X&X&X&X&X&X",
"&X&X&X&X&X&X&X&X&X&X&X&XXXu.! E R Y W v U J u.y z c n B &X&X% % &X&X&X&X&X&X&X&X",
"&X&X&X&X&X&X&X&X&X&X&X&X&XT.p.! g.Q T U x x v z j *.} &X&X&X&X&X&X&X&X&X&X&X&X&X",
"&X&X&X&X&X&X&X&X&X&X&X&X&X&X&Xp.y.Q Q m b c c M i } -.&X&X&X&X&X&X&X&X&X&X&X&X&X",
"&X&X&X&X&X&X&X&X&X&X&X&X&X&X&X% ,.<.} | B a +.&X2.L.D.&X&X&X&X&X&X&X&X&X&X&X&X&X",
"&X&X&X&X&X&X&X&X&X&X&X&X&X&X&X% 9.# &X&X&X&X&X&X+ L.F.O &X&X&X&X&X&X&X&X&X&X&X&X",
"&X&X&X&X&X&X&X&X&X&X&X&X&X&X&X&X&X&X&X&X&X&X&X&X&X&X&X&X&X&X&X&X&X&X&X&X&X&X&X&X",
"&X&X&X&X&X&X&X&X&X&X&X&X&X&X&X&X&X&X&X&X&X&X&X&X&X&X&X&X&X&X&X&X&X&X&X&X&X&X&X&X",
"&X&X&X&X&X&X&X&X&X&X&X&X&X&X&X&X&X&X&X&X&X&X&X&X&X&X&X&X&X&X&X&X&X&X&X&X&X&X&X&X",
"&X&X&X&X&X&X&X&X&X&X&X&X&X&X&X&X&X&X&X&X&X&X&X&X&X&X&X&X&X&X&X&X&X&X&X&X&X&X&X&X",
"&X&X&X&X&X&X&X&X&X&X&X&X&X&X&X&X&X&X&X&X&X&X&X&X&X&X&X&X&X&X&X&X&X&X&X&X&X&X&X&X",
"&X&X&X&X&X&X&X&X&X&X&X&X&X&X&X&X&X&X&X&X&X&X&X&X&X&X&X&X&X&X&X&X&X&X&X&X&X&X&X&X",
"&X&X&X&X&X&X&X&X&X&X&X&X&X&X&X&X&X&X&X&X&X&X&X&X&X&X&X&X&X&X&X&X&X&X&X&X&X&X&X&X",
"&X&X&X&X&X&X&X&X&X&X&X&X&X&X&X&X&X&X&X&X&X&X&X&X&X&X&X&X&X&X&X&X&X&X&X&X&X&X&X&X"
};
