/* XPM */
static char *_39a015a498a4eb7f707eb5537a9e595RAQMfsPzcozEio6p[] = {
/* columns rows colors chars-per-pixel */
"40 40 198 2 ",
"   c None",
".  c #260A0D",
"X  c #2E080C",
"o  c #22070B",
"O  c #3C0B0F",
"+  c #320B0F",
"@  c #2B0D10",
"#  c #300F12",
"$  c #3A0F12",
"%  c #2A1717",
"&  c #3B1618",
"*  c #331D1A",
"=  c #381517",
"-  c #29201F",
";  c #39251B",
":  c #2F1C20",
">  c #2D2422",
",  c #382C29",
"<  c #3D3429",
"1  c #3F3734",
"2  c #480C0F",
"3  c #420E12",
"4  c #431115",
"5  c #411C1C",
"6  c #4D191B",
"7  c #51151A",
"8  c #56191D",
"9  c #5B1619",
"0  c #6C1518",
"q  c #621B1F",
"w  c #721718",
"e  c #751B19",
"r  c #781919",
"t  c #433917",
"y  c #413716",
"u  c #6F2719",
"i  c #7B221C",
"p  c #74261B",
"a  c #591F20",
"s  c #651D21",
"d  c #7D1C21",
"f  c #472323",
"g  c #462821",
"h  c #592021",
"j  c #512925",
"k  c #5C2826",
"l  c #49312B",
"z  c #423734",
"x  c #453A34",
"c  c #463E39",
"v  c #5B3835",
"b  c #583B2E",
"n  c #652A29",
"m  c #612425",
"M  c #7C2424",
"N  c #72262A",
"B  c #7A2A2F",
"V  c #77262B",
"C  c #68322F",
"Z  c #793D22",
"A  c #7A2D30",
"S  c #683B36",
"D  c #733E3B",
"F  c #544E1C",
"G  c #4C461B",
"H  c #46403C",
"J  c #53413B",
"K  c #654029",
"L  c #734521",
"P  c #7B4024",
"I  c #614C35",
"U  c #74443E",
"Y  c #645D29",
"T  c #5C4C44",
"R  c #57514C",
"E  c #5D534B",
"W  c #4C4643",
"Q  c #654F4E",
"!  c #65594C",
"~  c #695C4F",
"^  c #715747",
"/  c #625B54",
"(  c #695955",
")  c #6D6053",
"_  c #6D665B",
"`  c #7B6452",
"'  c #7E6954",
"]  c #74695B",
"[  c #7A6B5C",
"{  c #736457",
"}  c #715F60",
"|  c #736564",
" . c #756C65",
".. c #7B756D",
"X. c #7A7067",
"o. c #7F7673",
"O. c #841E1F",
"+. c #851E20",
"@. c #8D1E25",
"#. c #931F24",
"$. c #832323",
"%. c #8C2427",
"&. c #892B27",
"*. c #972125",
"=. c #9A2326",
"-. c #932C28",
";. c #9C2E2A",
":. c #9F2328",
">. c #93332B",
",. c #9D322D",
"<. c #9A3C33",
"1. c #863C3B",
"2. c #A32529",
"3. c #A42B2C",
"4. c #AE282D",
"5. c #AE272D",
"6. c #B0282E",
"7. c #AB2E30",
"8. c #B22B30",
"9. c #B92D34",
"0. c #A63532",
"q. c #A93E3B",
"w. c #B03132",
"e. c #BE3139",
"r. c #C4333E",
"t. c #8B422A",
"y. c #8F4139",
"u. c #AD422F",
"i. c #B34F33",
"p. c #82712B",
"a. c #86692D",
"s. c #CE3B47",
"d. c #CF3B48",
"f. c #C53842",
"g. c #D63F4D",
"h. c #86554C",
"j. c #94554D",
"k. c #9E5851",
"l. c #B25E43",
"z. c #BE5E5F",
"x. c #B04E4E",
"c. c #8C6252",
"v. c #836C56",
"b. c #836F5C",
"n. c #826652",
"m. c #84705C",
"M. c #88755C",
"N. c #916857",
"B. c #847463",
"V. c #887666",
"C. c #8A7A61",
"Z. c #857A6C",
"A. c #8D7C6B",
"S. c #907E6D",
"D. c #8A7D73",
"F. c #847679",
"G. c #857879",
"H. c #D6404E",
"J. c #DD4553",
"K. c #DC4856",
"L. c #E24B59",
"P. c #C55D61",
"I. c #E75362",
"U. c #E85A6A",
"Y. c #928066",
"T. c #93856F",
"R. c #98876A",
"E. c #86867E",
"W. c #8D837A",
"Q. c #958472",
"!. c #9C8C73",
"~. c #93887E",
"^. c #9A8979",
"/. c #928972",
"(. c #A19174",
"). c #A79973",
"_. c #A1937B",
"`. c #8E8382",
"'. c #9C8F83",
"]. c #94898A",
"[. c #998F89",
"{. c #938985",
"}. c #9E9280",
"|. c #9C918C",
" X c #9B8F92",
".X c #9C9192",
"XX c #A49A9B",
"oX c #A99E9C",
"OX c #A29994",
"+X c #AEA199",
"@X c #B0A195",
"#X c #ACA2A2",
"$X c #B2A7A5",
"%X c #B9AFAD",
"&X c #B5AAA9",
"*X c #BAB0AE",
"=X c #BEB5B5",
"-X c #C0B8B8",
/* pixels */
"                                                                                ",
"                                                                                ",
"                                                                                ",
"                                                                                ",
"                                                                                ",
"                                      E                                         ",
"                                    F t                                         ",
"                                    < G                                         ",
"                                    l Y ;                                       ",
"                          v <.<.u u P a.y j i i p S                             ",
"                        q.=.i e i Z L p.t e i i M M q f                         ",
"                      *.0.,.:.:.>.L t.&.L %.O.>.+.+.w 0 :                       ",
"                    d ;.l.0.6.8.5.4.w.3.t.3.7.7.q.-.r 0 9                       ",
"                    #.u.i.r.d.r.f.r.e.8.2.2.8.2.2.;.$.w 9 3                     ",
"                  s #.w.e.g.J.K.I.L.s.r.8.3.0.0.3.3.>.w 9 3                     ",
"                  r ;.7.9.d.L.I.U.U.P.k.c.c.M.M.N.j.y.p 2 3 %                   ",
"                  r ;.2.4.s.L.L.U.z.n.' ' v.Y.C.b.n.n.h.h O                     ",
"                  r ,.2.4.r.H.K.k.v.b.b.` ` S.V.b.v.v.v.^ O o                   ",
"                  w -.*.2.8.f.x.n.m.V.B.V.A.^.^.A.A.C.M.' = o                   ",
"                  s $.A *.2.w.c.m.V.Q.A.Q.'.$X@X_.^.T.T.C.5 .                   ",
"                  l D.{ &.*.2.B.B.D.|.OX|.+X%X%XoX[.@X'.T.5 .                   ",
"                _ }.(.B.1.#.@.B.B.c 1 c oX#X=X=X$XOXo.> z & *  .                ",
"              / /._._._.h.$.%.b.[., / -  .XX=X=X#XF.W > x & T E.                ",
"            c /._._._.(.j.d %.` ~.{.|  .G.].XXoX.XF.|.W...$ < E...              ",
"            z A.^._.^.g C V B D ' D.$X-X&X]. X.X.X].OX|.~ %   o./               ",
"            , ] D.A.; 5 n N B V A ^ ~.*X=X$XF.F.G.].}...J       R               ",
"              E X.H   6 a m n n N V U `.XX&X} ( ( D.Z.! %       >               ",
"                %       8 q l I K m s C [ | Q J T J = @                         ",
"                        4 f V.).R.b 8 8 h k v j 5 @ @ *                         ",
"                          5 !.).).Y.6 8 7 7 4 3 # @ * )                         ",
"                          x !.(.(.v.f 4 3 3 O X . l [ [                         ",
"                          D._.(.!.~ & $ # + X . ; ) [ ]                         ",
"                          Q.(.!.Q.J # # @ @ @ . ! [ [ _                         ",
"                        ! Q.(.!.S.c             ! [ [ {                         ",
"                        T Z.A.Z.F.z             T [ ] _ R                       ",
"                                                                                ",
"                                                                                ",
"                                                                                ",
"                                                                                ",
"                                                                                "
};
